<mxfile host="app.diagrams.net" modified="2023-08-29T02:43:21.290Z" agent="Mozilla/5.0 (Linux; Android 10; K) AppleWebKit/537.36 (KHTML, like Gecko) Chrome/113.0.0.0 Mobile Safari/537.36" etag="hREYD8wWMTyOCRhHrMSJ" version="21.6.9" type="github">
  <diagram name="Halaman-1" id="-m2CmOiKKcTFjClm1BdW">
    <mxGraphModel dx="402" dy="1672" grid="0" gridSize="10" guides="1" tooltips="1" connect="1" arrows="1" fold="1" page="0" pageScale="1" pageWidth="827" pageHeight="1169" math="0" shadow="0">
      <root>
        <mxCell id="0" />
        <mxCell id="1" parent="0" />
        <mxCell id="Hg_7TfTo_1rYTSMWxhC5-2" value="" style="rounded=0;whiteSpace=wrap;html=1;fontSize=16;rotation=90;movable=0;resizable=0;rotatable=0;deletable=0;editable=0;locked=1;connectable=0;" vertex="1" parent="1">
          <mxGeometry x="99" y="33.5" width="379.58" height="175.5" as="geometry" />
        </mxCell>
        <mxCell id="Hg_7TfTo_1rYTSMWxhC5-3" value="Actor" style="shape=umlActor;verticalLabelPosition=bottom;verticalAlign=top;html=1;outlineConnect=0;fontSize=16;movable=1;resizable=1;rotatable=1;deletable=1;editable=1;locked=0;connectable=1;" vertex="1" parent="1">
          <mxGeometry x="56" y="33.5" width="100" height="250" as="geometry" />
        </mxCell>
        <mxCell id="Hg_7TfTo_1rYTSMWxhC5-6" value="Actor" style="shape=umlActor;verticalLabelPosition=bottom;verticalAlign=top;html=1;outlineConnect=0;fontSize=16;" vertex="1" parent="1">
          <mxGeometry x="397" y="33.5" width="100" height="250" as="geometry" />
        </mxCell>
        <mxCell id="Hg_7TfTo_1rYTSMWxhC5-13" value="Pengacak angka" style="ellipse;whiteSpace=wrap;html=1;fontSize=16;movable=0;resizable=0;rotatable=0;deletable=0;editable=0;locked=1;connectable=0;" vertex="1" parent="1">
          <mxGeometry x="220" y="-3" width="131" height="71" as="geometry" />
        </mxCell>
        <mxCell id="Hg_7TfTo_1rYTSMWxhC5-15" value="Penebak angka" style="ellipse;whiteSpace=wrap;html=1;fontSize=16;direction=west;movable=0;resizable=0;rotatable=0;deletable=0;editable=0;locked=1;connectable=0;" vertex="1" parent="1">
          <mxGeometry x="220" y="91" width="131.5" height="71" as="geometry" />
        </mxCell>
        <mxCell id="Hg_7TfTo_1rYTSMWxhC5-16" style="edgeStyle=none;curved=1;rounded=0;orthogonalLoop=1;jettySize=auto;html=1;exitX=1;exitY=0.5;exitDx=0;exitDy=0;fontSize=12;startSize=8;endSize=8;" edge="1" parent="1" source="Hg_7TfTo_1rYTSMWxhC5-2" target="Hg_7TfTo_1rYTSMWxhC5-2">
          <mxGeometry relative="1" as="geometry" />
        </mxCell>
        <mxCell id="Hg_7TfTo_1rYTSMWxhC5-14" value="Cek angka&amp;nbsp;" style="ellipse;whiteSpace=wrap;html=1;fontSize=16;movable=0;resizable=0;rotatable=0;deletable=0;editable=0;locked=1;connectable=0;" vertex="1" parent="1">
          <mxGeometry x="220" y="180" width="131" height="71" as="geometry" />
        </mxCell>
      </root>
    </mxGraphModel>
  </diagram>
</mxfile>
